<svg width="162" height="44" viewBox="0 0 162 44" fill="none" xmlns="http://www.w3.org/2000/svg">
<path d="M30.238 9.64594V9.23413H29.8262H13.3541C6.30367 9.23413 0.588198 14.9496 0.588198 22C0.588198 29.0504 6.30366 34.7659 13.3541 34.7659H29.8262H30.238V34.3541V9.64594Z" fill="#288765" stroke="white" stroke-width="0.823604"/>
<path d="M29.4144 9.64594V9.23413H29.8262H46.2983C53.3487 9.23413 59.0641 14.9496 59.0641 22C59.0641 29.0504 53.3487 34.7659 46.2983 34.7659H29.8262H29.4144V34.3541V9.64594Z" fill="#FBC507" stroke="white" stroke-width="0.823604"/>
<path d="M90.651 11.1859V32H85.5809V19.5175L80.9259 32H76.8342L72.1495 19.4878V32H67.0794V11.1859H73.0687L78.9097 25.5957L84.6914 11.1859H90.651ZM109.893 23.4609C109.893 23.9353 109.863 24.4294 109.804 24.9434H98.3294C98.4084 25.9712 98.7346 26.7619 99.3078 27.3153C99.9008 27.849 100.622 28.1159 101.472 28.1159C102.737 28.1159 103.617 27.5822 104.111 26.5148H109.507C109.231 27.602 108.727 28.5804 107.995 29.4501C107.284 30.3198 106.384 31.0018 105.297 31.496C104.21 31.9901 102.994 32.2372 101.65 32.2372C100.029 32.2372 98.5863 31.8913 97.3213 31.1995C96.0562 30.5076 95.0679 29.5193 94.3563 28.2345C93.6447 26.9497 93.2889 25.4474 93.2889 23.7277C93.2889 22.008 93.6348 20.5058 94.3266 19.221C95.0382 17.9361 96.0266 16.9478 97.2916 16.256C98.5567 15.5642 100.01 15.2182 101.65 15.2182C103.251 15.2182 104.674 15.5543 105.92 16.2263C107.165 16.8984 108.134 17.8571 108.825 19.1024C109.537 20.3476 109.893 21.8005 109.893 23.4609ZM104.704 22.1266C104.704 21.2569 104.408 20.5651 103.815 20.0511C103.222 19.5372 102.48 19.2803 101.591 19.2803C100.741 19.2803 100.019 19.5273 99.4264 20.0215C98.8532 20.5157 98.4974 21.2174 98.359 22.1266H104.704ZM111.559 23.6981C111.559 21.9981 111.876 20.5058 112.508 19.221C113.16 17.9361 114.04 16.9478 115.147 16.256C116.254 15.5642 117.489 15.2182 118.853 15.2182C119.94 15.2182 120.929 15.4456 121.818 15.9002C122.727 16.3548 123.439 16.9676 123.953 17.7385V10.0592H129.023V32H123.953V29.628C123.479 30.4187 122.797 31.0512 121.907 31.5256C121.037 32 120.019 32.2372 118.853 32.2372C117.489 32.2372 116.254 31.8913 115.147 31.1995C114.04 30.4879 113.16 29.4897 112.508 28.2048C111.876 26.9002 111.559 25.398 111.559 23.6981ZM123.953 23.7277C123.953 22.4627 123.597 21.4645 122.886 20.7331C122.194 20.0017 121.344 19.6361 120.336 19.6361C119.328 19.6361 118.468 20.0017 117.756 20.7331C117.064 21.4447 116.718 22.433 116.718 23.6981C116.718 24.9631 117.064 25.9712 117.756 26.7223C118.468 27.4537 119.328 27.8194 120.336 27.8194C121.344 27.8194 122.194 27.4537 122.886 26.7223C123.597 25.991 123.953 24.9928 123.953 23.7277ZM135.241 13.7357C134.351 13.7357 133.62 13.4788 133.047 12.9649C132.493 12.4312 132.217 11.7789 132.217 11.008C132.217 10.2173 132.493 9.56502 133.047 9.05109C133.62 8.51739 134.351 8.25054 135.241 8.25054C136.111 8.25054 136.822 8.51739 137.376 9.05109C137.949 9.56502 138.236 10.2173 138.236 11.008C138.236 11.7789 137.949 12.4312 137.376 12.9649C136.822 13.4788 136.111 13.7357 135.241 13.7357ZM137.761 15.4554V32H132.691V15.4554H137.761Z" fill="#067A50"/>
<path d="M154.185 32L149.945 25.6253L146.209 32H140.457L147.128 21.415L140.309 11.1859H146.209L150.39 17.4716L154.066 11.1859H159.818L153.206 21.6819L160.085 32H154.185Z" fill="#FBC507"/>
</svg>
