<svg width="30" height="31" viewBox="0 0 30 37" fill="none" xmlns="http://www.w3.org/2000/svg">
<g clip-path="url(#clip0_75_59)">
<path d="M29.0602 12.5844C26.6024 14.1032 25.0843 16.7068 25.0843 19.5998C25.0843 22.8544 27.0361 25.8197 30 27.0492C29.4217 28.9296 28.5542 30.6654 27.4699 32.2565C25.8795 34.4986 24.2169 36.8129 21.759 36.8129C19.3012 36.8129 18.5783 35.3664 15.6867 35.3664C12.8675 35.3664 11.8554 36.8852 9.54217 36.8852C7.22892 36.8852 5.63855 34.7878 3.83133 32.1842C1.44578 28.568 0.0722892 24.3732 0 19.9614C0 12.8014 4.62651 8.96818 9.25301 8.96818C11.7108 8.96818 13.7349 10.5593 15.253 10.5593C16.6988 10.5593 19.012 8.89585 21.759 8.89585C24.6506 8.82353 27.3976 10.1977 29.0602 12.5844ZM20.4578 5.85825C21.6867 4.41177 22.3373 2.60366 22.4096 0.72324C22.4096 0.506268 22.4096 0.216972 22.3373 0C20.241 0.216972 18.2892 1.22951 16.9157 2.82064C15.6867 4.19479 14.9639 5.93057 14.8916 7.81099C14.8916 8.02797 14.8916 8.24494 14.9639 8.46191C15.1084 8.46191 15.3253 8.53423 15.4699 8.53423C17.4217 8.38959 19.2289 7.37705 20.4578 5.85825Z" fill="black"/>
</g>
<defs>
<clipPath id="clip0_75_59">
<rect width="30" height="36.8852" fill="white"/>
</clipPath>
</defs>
</svg>
