<svg width="30" height="31" viewBox="0 0 30 31" fill="none" xmlns="http://www.w3.org/2000/svg">
<g clip-path="url(#clip0_75_53)">
<path d="M30 15.8852C30 7.60097 23.2843 0.885248 15 0.885248C6.71572 0.885248 0 7.60097 0 15.8852C0 23.3722 5.48528 29.5777 12.6562 30.703V20.2212H8.84766V15.8852H12.6562V12.5806C12.6562 8.82119 14.8956 6.74462 18.322 6.74462C19.9631 6.74462 21.6797 7.03759 21.6797 7.03759V10.729H19.7882C17.9249 10.729 17.3438 11.8853 17.3438 13.0715V15.8852H21.5039L20.8389 20.2212H17.3438V30.703C24.5147 29.5777 30 23.3722 30 15.8852Z" fill="#1877F2"/>
<path d="M20.8389 20.2212L21.5039 15.8852H17.3438V13.0715C17.3438 11.8853 17.9249 10.729 19.7882 10.729H21.6797V7.03759C21.6797 7.03759 19.9631 6.74462 18.322 6.74462C14.8956 6.74462 12.6563 8.82119 12.6563 12.5806V15.8852H8.84766V20.2212H12.6563V30.703C13.4199 30.8228 14.2027 30.8852 15 30.8852C15.7973 30.8852 16.5801 30.8228 17.3438 30.703V20.2212H20.8389Z" fill="white"/>
</g>
<defs>
<clipPath id="clip0_75_53">
<rect width="30" height="30" fill="white" transform="translate(0 0.885246)"/>
</clipPath>
</defs>
</svg>
