<svg width="121" height="34" viewBox="0 0 121 34" fill="none" xmlns="http://www.w3.org/2000/svg">
<path d="M26.5366 8.37067V8.09546H26.2614H15.2531C10.5413 8.09546 6.72168 11.9151 6.72168 16.6269C6.72168 21.3387 10.5413 25.1583 15.2531 25.1583H26.2614H26.5366V24.8831V8.37067Z" fill="#288765" stroke="white" stroke-width="0.550415"/>
<path d="M25.9863 8.37067V8.09546H26.2615H37.2698C41.9816 8.09546 45.8012 11.9151 45.8012 16.6269C45.8012 21.3387 41.9816 25.1583 37.2698 25.1583H26.2615H25.9863V24.8831V8.37067Z" fill="#FBC507" stroke="white" stroke-width="0.550415"/>
<path d="M66.9107 9.7168V23.6269H63.5224V15.2848L60.4114 23.6269H57.677L54.5462 15.265V23.6269H51.1578V9.7168H55.1605L59.064 19.3469L62.9279 9.7168H66.9107ZM79.77 17.9202C79.77 18.2372 79.7502 18.5675 79.7106 18.9109H72.0422C72.095 19.5979 72.313 20.1263 72.6961 20.4961C73.0924 20.8528 73.5745 21.0311 74.1426 21.0311C74.988 21.0311 75.5758 20.6745 75.9061 19.9611H79.5124C79.3275 20.6877 78.9906 21.3416 78.5019 21.9228C78.0263 22.504 77.4252 22.9598 76.6987 23.29C75.9721 23.6203 75.1597 23.7854 74.2615 23.7854C73.1782 23.7854 72.2139 23.5542 71.3685 23.0919C70.523 22.6295 69.8625 21.969 69.387 21.1104C68.9114 20.2517 68.6736 19.2478 68.6736 18.0985C68.6736 16.9493 68.9048 15.9453 69.3672 15.0867C69.8427 14.228 70.5032 13.5675 71.3487 13.1052C72.1941 12.6428 73.165 12.4116 74.2615 12.4116C75.3315 12.4116 76.2826 12.6362 77.1148 13.0853C77.947 13.5345 78.5943 14.1752 79.0567 15.0074C79.5322 15.8396 79.77 16.8106 79.77 17.9202ZM76.3024 17.0285C76.3024 16.4473 76.1042 15.9849 75.7079 15.6415C75.3116 15.298 74.8163 15.1263 74.2218 15.1263C73.6538 15.1263 73.1716 15.2914 72.7753 15.6217C72.3922 15.9519 72.1545 16.4209 72.062 17.0285H76.3024ZM80.8838 18.0787C80.8838 16.9427 81.0952 15.9453 81.5179 15.0867C81.9538 14.228 82.5417 13.5675 83.2814 13.1052C84.0212 12.6428 84.8468 12.4116 85.7583 12.4116C86.4848 12.4116 87.1453 12.5635 87.7398 12.8674C88.3475 13.1712 88.823 13.5807 89.1665 14.0959V8.96383H92.5548V23.6269H89.1665V22.0417C88.8494 22.5701 88.3937 22.9928 87.7992 23.3099C87.218 23.6269 86.5377 23.7854 85.7583 23.7854C84.8468 23.7854 84.0212 23.5542 83.2814 23.0919C82.5417 22.6163 81.9538 21.9492 81.5179 21.0906C81.0952 20.2187 80.8838 19.2148 80.8838 18.0787ZM89.1665 18.0985C89.1665 17.2531 88.9287 16.586 88.4531 16.0972C87.9908 15.6084 87.4228 15.3641 86.749 15.3641C86.0753 15.3641 85.5007 15.6084 85.0251 16.0972C84.5628 16.5728 84.3316 17.2333 84.3316 18.0787C84.3316 18.9241 84.5628 19.5979 85.0251 20.0998C85.5007 20.5886 86.0753 20.833 86.749 20.833C87.4228 20.833 87.9908 20.5886 88.4531 20.0998C88.9287 19.6111 89.1665 18.944 89.1665 18.0985ZM96.7102 11.4209C96.1158 11.4209 95.627 11.2492 95.2439 10.9057C94.8741 10.549 94.6891 10.1131 94.6891 9.59791C94.6891 9.06951 94.8741 8.63358 95.2439 8.29013C95.627 7.93346 96.1158 7.75512 96.7102 7.75512C97.2915 7.75512 97.767 7.93346 98.1369 8.29013C98.52 8.63358 98.7115 9.06951 98.7115 9.59791C98.7115 10.1131 98.52 10.549 98.1369 10.9057C97.767 11.2492 97.2915 11.4209 96.7102 11.4209ZM98.3945 12.5702V23.6269H95.0062V12.5702H98.3945Z" fill="#067A50"/>
<path d="M109.37 23.6269L106.537 19.3667L104.04 23.6269H100.196L104.654 16.553L100.097 9.7168H104.04L106.834 13.9176L109.291 9.7168H113.135L108.717 16.7313L113.314 23.6269H109.37Z" fill="#FBC507"/>
</svg>
